<?xml version="1.0" encoding="UTF-8"?>
<!DOCTYPE svg PUBLIC "-//W3C//DTD SVG 1.1//EN" "http://www.w3.org/Graphics/SVG/1.1/DTD/svg11.dtd">
<!-- Creator: CorelDRAW -->
<svg xmlns="http://www.w3.org/2000/svg" xml:space="preserve" width="165px" height="50px" version="1.1" style="shape-rendering:geometricPrecision; text-rendering:geometricPrecision; image-rendering:optimizeQuality; fill-rule:evenodd; clip-rule:evenodd"
viewBox="0 0 13.7 4.2"
 xmlns:xlink="http://www.w3.org/1999/xlink"
 xmlns:xodm="http://www.corel.com/coreldraw/odm/2003">
 <defs>
  <style type="text/css">
   <![CDATA[
    .fil0 {fill:#003399}
    .fil1 {fill:black;fill-rule:nonzero}
   ]]>
  </style>
 </defs>
 <g id="Capa_x0020_1">
  <metadata id="CorelCorpID_0Corel-Layer"/>
  <g id="_2005999620576">
   <path class="fil0" d="M1.9 4.1l0 0.1 -0.1 -0.1 0 0 -1.8 -1.1 0 -1.9 1.8 -1.1 0 0 0.1 0 0 0 0 0 1.8 1.1 0 1.9 -1.8 1.1 0 0zm-1.4 -1.3l1.4 0.8 1.4 -0.8 0 -1.4 -1.4 -0.9 -1.4 0.9 0 1.4zm1.4 -1.6c0.2,0 0.4,0.1 0.6,0.2 0.2,0.2 0.3,0.4 0.3,0.7 0,0.2 -0.1,0.5 -0.3,0.6 -0.2,0.2 -0.4,0.3 -0.6,0.3 -0.3,0 -0.5,-0.1 -0.7,-0.3 -0.2,-0.1 -0.3,-0.4 -0.3,-0.6 0,-0.3 0.1,-0.5 0.3,-0.7 0.2,-0.1 0.4,-0.2 0.7,-0.2zm0.3 0.5c-0.1,0 -0.2,-0.1 -0.3,-0.1 -0.2,0 -0.3,0.1 -0.4,0.1 -0.1,0.1 -0.1,0.3 -0.1,0.4 0,0.1 0,0.2 0.1,0.3 0.1,0.1 0.2,0.1 0.4,0.1 0.1,0 0.2,0 0.3,-0.1 0.1,-0.1 0.1,-0.2 0.1,-0.3 0,-0.1 0,-0.3 -0.1,-0.4z"/>
   <path class="fil1" d="M6.4 3.8l-1.5 0 0 -0.9 1.5 0c0.2,0 0.3,0 0.3,-0.1l0 -0.1c0,-0.1 -0.1,-0.2 -0.3,-0.2l-0.3 0c-0.8,0 -1.2,-0.3 -1.2,-0.9l0 -0.2c0,-0.6 0.4,-1 1.2,-1l1.5 0 0 0.9 -1.5 0c-0.2,0 -0.3,0 -0.3,0.1l0 0.2c0,0 0.1,0.1 0.3,0.1l0.3 0c0.8,0 1.2,0.3 1.2,1l0 0.1c0,0.7 -0.4,1 -1.2,1zm2.6 -0.9l1.6 0 0 0.9 -1.6 0c-0.8,0 -1.2,-0.4 -1.2,-1.2l0 -1c0,-0.8 0.4,-1.2 1.2,-1.2l1.6 0 0 0.9 -1.6 0c-0.2,0 -0.3,0.1 -0.3,0.3l0 1c0,0.2 0.1,0.3 0.3,0.3zm2.9 0l1.5 0 0 0.9 -1.5 0c-0.8,0 -1.2,-0.4 -1.2,-1.2l0 -1c0,-0.8 0.4,-1.2 1.2,-1.2l0.6 0c0.8,0 1.2,0.4 1.2,1.1l0 1 -2.1 0 0 0.1c0,0.2 0.1,0.3 0.3,0.3zm0.6 -1.6l-0.6 0c-0.2,0 -0.3,0.1 -0.3,0.3l0 0.1 1.2 0 0 -0.2c0,-0.1 -0.1,-0.2 -0.3,-0.2z"/>
  </g>
 </g>
</svg>
