<?xml version="1.0" standalone="no"?>
<!DOCTYPE svg PUBLIC "-//W3C//DTD SVG 20010904//EN"
 "http://www.w3.org/TR/2001/REC-SVG-20010904/DTD/svg10.dtd">
<svg version="1.0" xmlns="http://www.w3.org/2000/svg"
 width="500.000000pt" height="500.000000pt" viewBox="0 0 500.000000 500.000000"
 preserveAspectRatio="xMidYMid meet">

<g transform="translate(0.000000,500.000000) scale(0.100000,-0.100000)"
fill="#000000" stroke="none">
<path d="M2440 4456 c-47 -17 -1578 -902 -1609 -929 -13 -12 -32 -40 -42 -62
-18 -38 -19 -87 -19 -965 0 -878 1 -927 19 -965 10 -22 29 -50 42 -62 34 -30
1565 -913 1614 -931 24 -8 56 -11 81 -7 30 4 266 136 830 461 434 250 800 465
813 477 13 12 32 40 42 62 18 38 19 87 19 965 0 878 -1 927 -19 965 -10 22
-29 50 -42 62 -30 27 -1562 912 -1609 929 -44 16 -76 16 -120 0z m505 -665
c231 -134 527 -304 657 -379 l238 -137 0 -775 0 -775 -98 -56 c-53 -31 -349
-201 -656 -379 -308 -177 -568 -325 -577 -327 -11 -3 -277 144 -683 378 l-666
384 0 775 1 775 662 383 c405 234 670 381 682 379 11 -2 209 -113 440 -246z"/>
<path d="M2325 3333 c-276 -58 -513 -259 -618 -523 -134 -337 -30 -734 252
-967 236 -194 551 -243 854 -133 259 95 443 309 514 597 22 92 22 294 0 386
-86 347 -325 575 -677 641 -101 20 -232 19 -325 -1z m307 -393 c67 -21 168
-80 204 -121 41 -45 85 -124 104 -188 38 -122 19 -266 -51 -376 -44 -70 -65
-92 -133 -137 -236 -154 -551 -69 -668 179 -104 220 -21 494 181 602 118 62
247 77 363 41z"/>
</g>
</svg>
